<svg width="50" height="51" viewBox="0 0 50 51" fill="none" xmlns="http://www.w3.org/2000/svg">
<circle cx="25" cy="25.0638" r="25" fill="#EAEBFF"/>
<path d="M39.7965 33.4607C39.8281 33.787 39.7911 34.1164 39.688 34.4276C39.5848 34.7388 39.4177 35.0251 39.1975 35.268C38.9772 35.5108 38.7086 35.705 38.4089 35.838C38.1092 35.971 37.785 36.0399 37.4571 36.0403H16.7732C12.9659 36.082 9.78787 33.1447 9.53043 29.3458C9.4823 28.3915 9.62869 27.4373 9.96069 26.5413C10.2927 25.6453 10.8034 24.8262 11.4617 24.1336C12.1201 23.4411 12.9124 22.8896 13.7904 22.5127C14.6685 22.1358 15.614 21.9414 16.5695 21.9412H35.1073C36.1804 21.9423 37.221 22.31 38.0567 22.9833C38.8924 23.6566 39.4731 24.5951 39.7025 25.6435L39.7182 25.727C39.8519 26.4083 39.8332 27.1108 39.6635 27.7841C39.4938 28.4573 39.1773 29.0847 38.7366 29.6212C38.2959 30.1577 37.742 30.5901 37.1145 30.8874C36.487 31.1846 35.8016 31.3394 35.1073 31.3406H37.3579C37.9544 31.3307 38.5334 31.5417 38.9836 31.9331C39.4338 32.3245 39.7234 32.8686 39.7965 33.4607Z" fill="#A4C2F7"/>
<path d="M37.3586 31.3405H35.792C36.3885 31.3306 36.9675 31.5417 37.4177 31.9331C37.8679 32.3245 38.1575 32.8686 38.2306 33.4606C38.2622 33.787 38.2252 34.1164 38.1221 34.4276C38.0189 34.7388 37.8518 35.0251 37.6316 35.2679C37.4113 35.5108 37.1427 35.705 36.843 35.838C36.5433 35.971 36.2191 36.0399 35.8912 36.0402H37.4578C37.7857 36.0399 38.1099 35.971 38.4096 35.838C38.7093 35.705 38.9779 35.5108 39.1981 35.2679C39.4184 35.0251 39.5855 34.7388 39.6886 34.4276C39.7918 34.1164 39.8288 33.787 39.7972 33.4606C39.724 32.8686 39.4345 32.3245 38.9843 31.9331C38.5341 31.5417 37.955 31.3306 37.3586 31.3405Z" fill="#7FACFA"/>
<path d="M38.1363 25.6435L38.1519 25.727C38.2857 26.4083 38.267 27.1108 38.0973 27.7841C37.9276 28.4573 37.611 29.0847 37.1703 29.6212C36.7296 30.1577 36.1757 30.5901 35.5482 30.8874C34.9208 31.1846 34.2353 31.3394 33.541 31.3406H35.1076C35.8019 31.3394 36.4874 31.1846 37.1148 30.8874C37.7423 30.5901 38.2962 30.1577 38.7369 29.6212C39.1776 29.0847 39.4942 28.4573 39.6639 27.7841C39.8336 27.1108 39.8522 26.4083 39.7185 25.727L39.7028 25.6435C39.4734 24.5951 38.8928 23.6566 38.0571 22.9833C37.2214 22.31 36.1808 21.9423 35.1076 21.9412H33.541C34.6142 21.9423 35.6548 22.31 36.4905 22.9833C37.3262 23.6566 37.9068 24.5951 38.1363 25.6435Z" fill="#7FACFA"/>
<path d="M39.7029 25.6434C39.4734 24.595 38.8928 23.6565 38.0571 22.9832C37.2214 22.3099 36.1808 21.9422 35.1076 21.9411H16.5699C14.9768 21.9426 13.431 22.4832 12.1842 23.475C10.9374 24.4667 10.063 25.8512 9.70312 27.4032L11.6822 18.1291C11.9561 16.8435 12.6631 15.6909 13.6848 14.8639C14.7066 14.037 15.9813 13.5859 17.2958 13.5861H32.5541C33.8686 13.5859 35.1433 14.037 36.165 14.8639C37.1868 15.6909 37.8938 16.8435 38.1677 18.1291L39.7029 25.6434Z" fill="#E8EDFC"/>
<path d="M38.1674 18.1291C37.8935 16.8435 37.1866 15.6909 36.1648 14.8639C35.143 14.037 33.8683 13.5859 32.5539 13.5861H30.9873C32.3018 13.5859 33.5765 14.037 34.5982 14.8639C35.62 15.6909 36.3269 16.8435 36.6008 18.1291L37.5162 22.6095C38.0684 22.9393 38.5472 23.3786 38.9232 23.9004C39.2992 24.4221 39.5644 25.0153 39.7026 25.6434L38.1674 18.1291Z" fill="#CAD9FC"/>
<path d="M9.70355 27.4032L9.66699 27.5651L9.70355 27.4032Z" fill="#E8EDFC"/>
<path d="M16.773 36.0402H18.3396C13.7861 36.0402 10.208 31.9149 11.2691 27.4032L13.2482 18.1291C13.5221 16.8435 14.2291 15.6909 15.2508 14.8639C16.2726 14.037 17.5473 13.5859 18.8618 13.5861H17.2952C15.9807 13.5859 14.706 14.037 13.6843 14.8639C12.6625 15.6909 11.9556 16.8435 11.6817 18.1291L9.70256 27.4032C8.64147 31.9149 12.2195 36.0402 16.773 36.0402Z" fill="white"/>
<path d="M12.5371 35.3279L13.0969 34.4459C13.6477 34.7867 14.24 35.0552 14.8593 35.2449C15.4838 35.4156 16.1277 35.507 16.7752 35.518V36.5624C16.0285 36.5519 15.287 36.4464 14.5674 36.249C13.8536 36.0312 13.1711 35.7216 12.5371 35.3279Z" fill="white"/>
<path d="M14.7191 36.2653C14.5806 36.266 14.4476 36.2117 14.3491 36.1142C14.2507 36.0168 14.195 35.8842 14.1943 35.7457C14.1937 35.6073 14.248 35.4742 14.3454 35.3757C14.4429 35.2773 14.5754 35.2216 14.7139 35.2209H14.7191C14.8576 35.2209 14.9905 35.276 15.0884 35.3739C15.1863 35.4718 15.2413 35.6046 15.2413 35.7431C15.2413 35.8816 15.1863 36.0145 15.0884 36.1124C14.9905 36.2103 14.8576 36.2653 14.7191 36.2653Z" fill="#428DFF"/>
<path d="M40.2319 25.6298L38.6789 18.0205C38.375 16.6204 37.6023 15.3659 36.4886 14.4646C35.3748 13.5633 33.9869 13.0692 32.5542 13.0638H17.2958C15.8632 13.0691 14.4753 13.5632 13.3617 14.4644C12.248 15.3656 11.4754 16.6199 11.1716 18.0199L9.15487 27.4559C9.15409 27.4684 9.15409 27.481 9.15487 27.4935C9.02827 28.1116 8.97898 28.7431 9.00813 29.3734C9.07752 30.5772 9.43401 31.7469 10.0478 32.7848C10.6728 33.8111 11.5241 34.6809 12.5366 35.3279C12.5958 35.3663 12.6622 35.3922 12.7318 35.4039C12.8015 35.4156 12.8727 35.4129 12.9413 35.396C13.0098 35.3791 13.0741 35.3483 13.1302 35.3055C13.1864 35.2627 13.2331 35.2088 13.2676 35.1472C13.3327 35.0302 13.3512 34.8928 13.3192 34.7627C13.2872 34.6326 13.2073 34.5195 13.0953 34.4459C12.2201 33.8864 11.484 33.1347 10.9428 32.248C10.4165 31.357 10.1103 30.3532 10.0499 29.3201C10.0062 28.4365 10.1424 27.5531 10.4503 26.7237C10.7581 25.8942 11.2312 25.136 11.8409 24.4948C12.4506 23.8537 13.1841 23.343 13.997 22.9938C14.8099 22.6446 15.6852 22.4641 16.57 22.4632H35.1077C36.2156 22.4632 37.2782 22.9034 38.0616 23.6868C38.845 24.4702 39.2852 25.5328 39.2852 26.6408C39.2852 27.7487 38.845 28.8113 38.0616 29.5947C37.2782 30.3781 36.2156 30.8183 35.1077 30.8183H16.57C16.3145 30.8179 16.062 30.7641 15.8286 30.6603C15.5952 30.5565 15.3862 30.405 15.2149 30.2155C15.0435 30.0261 14.9138 29.8029 14.8339 29.5602C14.7541 29.3176 14.7259 29.061 14.7512 28.8068C14.8142 28.3446 15.045 27.9217 15.3997 27.6185C15.7543 27.3154 16.208 27.1533 16.6744 27.1629H35.1077C35.2462 27.1629 35.379 27.1079 35.4769 27.01C35.5748 26.9121 35.6299 26.7793 35.6299 26.6408C35.6299 26.5023 35.5748 26.3694 35.4769 26.2715C35.379 26.1736 35.2462 26.1186 35.1077 26.1186H16.6744C15.9491 26.1109 15.2463 26.3703 14.6999 26.8473C14.1535 27.3244 13.8017 27.9858 13.7115 28.7055C13.6721 29.1047 13.7168 29.5077 13.8425 29.8886C13.9682 30.2695 14.1722 30.6199 14.4414 30.9172C14.7106 31.2146 15.0391 31.4523 15.4057 31.6151C15.7722 31.7779 16.1688 31.8623 16.57 31.8627H37.3567C37.8232 31.8531 38.2768 32.0157 38.6309 32.3194C38.985 32.6231 39.2148 33.0467 39.2763 33.5091C39.3024 33.7637 39.2744 34.021 39.194 34.264C39.1137 34.507 38.9828 34.7302 38.81 34.919C38.6385 35.1073 38.4297 35.2579 38.1969 35.361C37.964 35.4641 37.7122 35.5176 37.4575 35.518H16.7746C16.6362 35.518 16.5033 35.573 16.4054 35.6709C16.3075 35.7689 16.2525 35.9017 16.2525 36.0402C16.2525 36.1787 16.3075 36.3115 16.4054 36.4094C16.5033 36.5073 16.6362 36.5624 16.7746 36.5624H37.4575C37.8583 36.5624 38.2547 36.4785 38.6212 36.3161C38.9876 36.1537 39.316 35.9165 39.5853 35.6195C39.8545 35.3226 40.0586 34.9726 40.1845 34.592C40.3103 34.2115 40.3551 33.8088 40.316 33.4099C40.2458 32.8167 39.9946 32.2594 39.5966 31.8139C39.1986 31.3685 38.6731 31.0564 38.0915 30.9201C38.9228 30.3447 39.5682 29.5392 39.9485 28.6023C40.3288 27.6655 40.4275 26.6381 40.2324 25.646C40.2309 25.6387 40.2324 25.6345 40.2319 25.6298ZM35.1077 21.4189H16.57C15.5436 21.4157 14.5274 21.623 13.5843 22.0281C12.6413 22.4331 11.7913 23.0273 11.087 23.7739C11.0504 23.8121 11.0201 23.8538 10.9825 23.8925L12.193 18.2377C12.4461 17.0712 13.0899 16.026 14.0178 15.2751C14.9457 14.5242 16.1021 14.1126 17.2958 14.1082H32.5542C33.7472 14.1124 34.9031 14.5235 35.8308 15.2736C36.7585 16.0237 37.4026 17.0678 37.6565 18.2335L38.5792 22.751C37.6261 21.8937 36.3896 21.4193 35.1077 21.4189Z" fill="#428DFF"/>
<path d="M21.5305 15.1526H17.2955C16.3408 15.156 15.4159 15.4852 14.6736 16.0857C13.9314 16.6861 13.4163 17.522 13.2136 18.4549C13.1848 18.5904 13.211 18.7318 13.2864 18.848C13.3619 18.9642 13.4804 19.0457 13.6159 19.0745C13.7514 19.1033 13.8928 19.0771 14.009 19.0016C14.1252 18.9262 14.2067 18.8077 14.2355 18.6721C14.3875 17.9728 14.7736 17.3463 15.33 16.8962C15.8865 16.4461 16.5799 16.1994 17.2955 16.197H21.5305C21.669 16.197 21.8018 16.1419 21.8997 16.044C21.9976 15.9461 22.0527 15.8133 22.0527 15.6748C22.0527 15.5363 21.9976 15.4035 21.8997 15.3055C21.8018 15.2076 21.669 15.1526 21.5305 15.1526Z" fill="#428DFF"/>
<path d="M23.6198 16.197C23.9082 16.197 24.142 15.9632 24.142 15.6748C24.142 15.3864 23.9082 15.1526 23.6198 15.1526C23.3314 15.1526 23.0977 15.3864 23.0977 15.6748C23.0977 15.9632 23.3314 16.197 23.6198 16.197Z" fill="#428DFF"/>
</svg>
