<svg width="50" height="51" viewBox="0 0 50 51" fill="none" xmlns="http://www.w3.org/2000/svg">
<circle cx="25" cy="25.0638" r="25" fill="#FFEBEE"/>
<g clip-path="url(#clip0_257_19139)">
<path d="M22.2441 37.0893C24.208 39.5257 27.2166 41.0231 30.4575 41.0231L31.085 35.9545L30.4575 30.8859L22.2441 37.0893ZM28.6389 19.809L27.7589 17.4559C29.3048 15.8071 30.1082 15.0917 30.4575 14.7518L31.085 18.2901L30.4575 21.8283L28.6389 19.809Z" fill="#CD0000"/>
<path d="M30.458 41.023C36.2708 41.023 41.0002 36.294 41.0002 30.4809C41.0002 25.5682 34.0071 18.1326 30.458 14.7517V41.023Z" fill="#A80000"/>
<path d="M20.2941 9.10474C16.5165 12.6864 9 20.7262 9 25.9642C9 32.1917 14.0664 37.2583 20.2941 37.2583L20.9216 23.1815L20.2941 9.10474Z" fill="#FF8066"/>
<path d="M20.2939 37.2583C26.5213 37.2583 31.5881 32.192 31.5881 25.9642C31.5881 20.713 24.0928 12.7238 20.2939 9.10474V37.2583Z" fill="#FF4D4D"/>
<path d="M13.7061 25.9642C13.7061 29.5968 16.6614 32.5524 20.2943 32.5524L20.9217 25.9642L20.2943 19.376C16.6617 19.376 13.7061 22.3313 13.7061 25.9642Z" fill="#FFF5F5"/>
<path d="M20.2939 19.376V32.5524C23.9266 32.5524 26.8822 29.5971 26.8822 25.9642C26.8822 22.3315 23.9268 19.376 20.2939 19.376Z" fill="#ECE6F2"/>
<path d="M19.3531 25.0231H17.4707V26.9055H19.3531V28.7878H20.2942L20.9217 25.9643L20.2942 23.1407H19.3531V25.0231Z" fill="#FF4D4D"/>
<path d="M21.2351 28.7878V26.9055H23.1175V25.0231H21.2351V23.1407H20.2939V28.7878H21.2351Z" fill="#CD0000"/>
</g>
<defs>
<clipPath id="clip0_257_19139">
<rect width="32" height="32" fill="white" transform="translate(9 9.06384)"/>
</clipPath>
</defs>
</svg>
