<svg width="50" height="51" viewBox="0 0 50 51" fill="none" xmlns="http://www.w3.org/2000/svg">
<circle cx="25" cy="25.0638" r="25" fill="#E8F5E9"/>
<path d="M28.7297 18.8218C28.649 18.8219 28.5701 18.7954 28.5025 18.7456L28.2229 18.5404C28.2153 18.5348 28.2078 18.5288 28.2005 18.5226C27.9936 18.348 27.8562 18.0873 27.8185 17.7976C27.7808 17.508 27.8459 17.2133 27.9996 16.9782C28.0206 16.946 28.0295 16.9056 28.0243 16.866C28.0191 16.8263 28.0003 16.7906 27.972 16.7667L27.7817 16.6063C27.6924 16.531 27.6331 16.4185 27.6168 16.2935C27.6005 16.1685 27.6286 16.0413 27.6949 15.9399C27.7612 15.8384 27.8603 15.7711 27.9703 15.7526C28.0803 15.7341 28.1923 15.766 28.2816 15.8413L28.472 16.0021C28.6787 16.1768 28.8159 16.4375 28.8536 16.727C28.8913 17.0165 28.8263 17.3112 28.6729 17.5464C28.6528 17.5771 28.6438 17.6154 28.6476 17.6535C28.6513 17.6916 28.6677 17.7266 28.6933 17.7515L28.9576 17.9454C29.0337 18.0012 29.0918 18.0835 29.1233 18.18C29.1548 18.2764 29.1579 18.3819 29.1323 18.4805C29.1066 18.5792 29.0535 18.6657 28.9809 18.7273C28.9084 18.7888 28.8202 18.8219 28.7297 18.8218Z" fill="#F9B534"/>
<path d="M32.2256 13.8581C32.2184 13.8581 32.2113 13.8581 32.2041 13.8575C32.1491 13.8544 32.0952 13.8389 32.0455 13.8121C31.9957 13.7853 31.9511 13.7476 31.9142 13.7012C31.8772 13.6548 31.8487 13.6006 31.8302 13.5417C31.8117 13.4828 31.8036 13.4203 31.8064 13.3578L31.8261 12.9135C31.6177 12.8927 31.4244 12.781 31.287 12.6017C31.1496 12.4225 31.0787 12.1897 31.0892 11.9524L31.1067 11.5594C31.1088 11.4964 31.1219 11.4346 31.1453 11.3774C31.1686 11.3203 31.2017 11.269 31.2426 11.2264C31.2836 11.1839 31.3315 11.151 31.3837 11.1297C31.4359 11.1084 31.4913 11.099 31.5466 11.1022C31.602 11.1053 31.6563 11.1209 31.7064 11.1481C31.7564 11.1752 31.8012 11.2134 31.8382 11.2603C31.8752 11.3073 31.9036 11.3621 31.9218 11.4216C31.94 11.4811 31.9476 11.5441 31.9442 11.607L31.9285 11.9666C32.137 11.9874 32.3302 12.0992 32.4676 12.2784C32.605 12.4576 32.6759 12.6904 32.6654 12.9278L32.6444 13.4056C32.639 13.5277 32.5925 13.6427 32.5146 13.7269C32.4366 13.8111 32.3332 13.8581 32.2256 13.8581ZM24.9847 18.0893C24.9147 18.0894 24.8459 18.0695 24.7844 18.0316C24.7229 17.9937 24.6707 17.939 24.6326 17.8723L24.3872 17.443C24.3823 17.4343 24.3776 17.4255 24.3731 17.4164C24.2222 17.1096 24.1845 16.7473 24.2684 16.4089C24.3522 16.0705 24.5508 15.7838 24.8205 15.6115C24.8582 15.5875 24.8913 15.5553 24.918 15.5168C24.9446 15.4783 24.9644 15.4342 24.9761 15.387C24.9877 15.3399 24.9911 15.2905 24.986 15.2419C24.9809 15.1932 24.9674 15.1462 24.9463 15.1034L24.7894 14.7854C24.762 14.7308 24.7443 14.6705 24.7375 14.6082C24.7306 14.5458 24.7347 14.4825 24.7495 14.4219C24.7643 14.3613 24.7895 14.3047 24.8237 14.2552C24.8578 14.2058 24.9003 14.1645 24.9485 14.1337C24.9968 14.103 25.05 14.0834 25.1049 14.0761C25.1599 14.0688 25.2156 14.0739 25.2688 14.0912C25.322 14.1085 25.3717 14.1375 25.415 14.1767C25.4582 14.2159 25.4943 14.2644 25.521 14.3195L25.6779 14.6376C25.7529 14.7894 25.8008 14.9566 25.8188 15.1295C25.8369 15.3024 25.8249 15.4777 25.7833 15.6453C25.7418 15.8129 25.6716 15.9696 25.5767 16.1064C25.4819 16.2431 25.3642 16.3574 25.2305 16.4425C25.1562 16.49 25.1011 16.5683 25.0766 16.6611C25.0522 16.7538 25.0604 16.8537 25.0995 16.9397L25.336 17.3534C25.3771 17.4253 25.4004 17.5084 25.4034 17.594C25.4063 17.6796 25.389 17.7646 25.353 17.84C25.317 17.9153 25.2639 17.9782 25.199 18.0221C25.1342 18.066 25.0602 18.0892 24.9848 18.0893H24.9847Z" fill="#65D1DF"/>
<path d="M24.7228 12.8533C24.6512 12.8532 24.5809 12.8324 24.5185 12.7927C24.456 12.7531 24.4035 12.696 24.366 12.6268C24.3285 12.5576 24.3072 12.4787 24.3041 12.3975C24.301 12.3163 24.3163 12.2355 24.3484 12.1629C24.4527 11.9267 24.6171 11.7314 24.8202 11.6025C24.8961 11.554 24.952 11.4732 24.9755 11.378C24.9991 11.2827 24.9885 11.1807 24.946 11.0944L24.789 10.7763C24.7616 10.7217 24.744 10.6615 24.7371 10.5991C24.7303 10.5367 24.7344 10.4734 24.7492 10.4129C24.7639 10.3523 24.7891 10.2956 24.8233 10.2462C24.8575 10.1967 24.8999 10.1554 24.9482 10.1247C24.9964 10.0939 25.0496 10.0744 25.1046 10.0671C25.1595 10.0598 25.2152 10.0649 25.2684 10.0822C25.3216 10.0994 25.3713 10.1285 25.4146 10.1677C25.4579 10.2069 25.4939 10.2554 25.5206 10.3104L25.6775 10.6285C25.8286 10.9353 25.8663 11.2976 25.7825 11.636C25.6987 11.9744 25.5001 12.2612 25.2303 12.4335C25.1732 12.4696 25.127 12.5244 25.0977 12.5907C25.0628 12.6697 25.0092 12.736 24.943 12.7824C24.8768 12.8288 24.8006 12.8533 24.7228 12.8533Z" fill="#64A053"/>
<path d="M35.7792 17.5623H35.7739C35.4645 17.5577 35.1692 17.4138 34.9531 17.1622C34.7369 16.9107 34.6173 16.5719 34.6207 16.2204C34.6217 16.1215 34.588 16.0262 34.5273 15.9554C34.4665 15.8846 34.3835 15.8441 34.2964 15.8427L33.9755 15.8383C33.8643 15.8376 33.7579 15.7867 33.6797 15.6968C33.6015 15.607 33.558 15.4855 33.5586 15.3592C33.5592 15.2329 33.604 15.112 33.6831 15.0232C33.7622 14.9344 33.8692 14.8849 33.9804 14.8856H33.9856L34.3066 14.89C34.6161 14.8947 34.9112 15.0386 35.1274 15.2901C35.3436 15.5416 35.4631 15.8802 35.4598 16.2317C35.4589 16.3285 35.4911 16.422 35.5496 16.4924C35.6081 16.5629 35.6884 16.6047 35.7736 16.6092L36.2072 16.5831C36.2622 16.5798 36.3172 16.5888 36.3691 16.6097C36.421 16.6305 36.4688 16.6628 36.5098 16.7046C36.5507 16.7464 36.584 16.797 36.6078 16.8535C36.6315 16.9099 36.6452 16.9711 36.6481 17.0336C36.651 17.0961 36.6431 17.1586 36.6247 17.2175C36.6064 17.2765 36.578 17.3308 36.5411 17.3773C36.5043 17.4238 36.4598 17.4617 36.4101 17.4886C36.3604 17.5156 36.3065 17.5312 36.2515 17.5345L35.8016 17.5616C35.7941 17.562 35.7866 17.5623 35.7792 17.5623Z" fill="#F9B534"/>
<path d="M29.326 14.637C29.2941 14.637 29.2624 14.6329 29.2313 14.6247L28.7521 14.499C28.6277 14.4665 28.5102 14.4064 28.4063 14.3222C28.3024 14.238 28.2141 14.1314 28.1465 14.0085C28.0788 13.8855 28.0332 13.7486 28.0121 13.6056C27.9911 13.4627 27.995 13.3164 28.0237 13.1751C28.0316 13.1361 28.0256 13.0951 28.0069 13.0611C27.9882 13.0271 27.9585 13.003 27.9241 12.9939L27.3416 12.8411C27.2332 12.8127 27.1392 12.7365 27.0803 12.6294C27.0214 12.5223 27.0023 12.3929 27.0274 12.2698C27.0524 12.1467 27.1194 12.04 27.2138 11.973C27.3081 11.9061 27.4219 11.8844 27.5303 11.9129L28.1128 12.0656C28.3638 12.1318 28.5813 12.3084 28.7178 12.5566C28.8543 12.8047 28.8986 13.1043 28.841 13.3895C28.837 13.4088 28.8365 13.4288 28.8393 13.4484C28.8422 13.468 28.8485 13.4867 28.8577 13.5036C28.867 13.5204 28.879 13.535 28.8933 13.5465C28.9075 13.5581 28.9236 13.5663 28.9406 13.5708L29.4199 13.6964C29.5205 13.7224 29.6091 13.7897 29.6688 13.8853C29.7285 13.9809 29.755 14.0981 29.7434 14.2146C29.7318 14.331 29.6827 14.4385 29.6057 14.5165C29.5287 14.5944 29.4291 14.6374 29.3259 14.6372L29.326 14.637Z" fill="#F7685F"/>
<path d="M31.5786 17.5131C31.5098 17.5132 31.442 17.4941 31.3812 17.4574C31.3205 17.4206 31.2686 17.3674 31.2302 17.3025L30.8917 16.7309C30.8609 16.679 30.8395 16.6207 30.8286 16.5594C30.8177 16.4981 30.8175 16.4349 30.8281 16.3736C30.8387 16.3122 30.8598 16.2537 30.8903 16.2016C30.9208 16.1495 30.96 16.1047 31.0057 16.0698C31.0514 16.0349 31.1027 16.0106 31.1567 15.9982C31.2106 15.9858 31.2662 15.9856 31.3203 15.9977C31.3743 16.0097 31.4258 16.0337 31.4716 16.0683C31.5175 16.1029 31.5569 16.1474 31.5877 16.1993L31.9262 16.7712C31.9686 16.8429 31.9931 16.9263 31.997 17.0125C32.0009 17.0988 31.9842 17.1846 31.9485 17.2608C31.9128 17.337 31.8595 17.4008 31.7943 17.4453C31.7292 17.4898 31.6546 17.5134 31.5786 17.5134V17.5131Z" fill="#64A053"/>
<path d="M21.2694 18.8218C21.1788 18.8219 21.0907 18.7887 21.0181 18.7272C20.9455 18.6657 20.8925 18.5791 20.8668 18.4805C20.8411 18.3818 20.8443 18.2764 20.8758 18.1799C20.9072 18.0835 20.9654 18.0012 21.0414 17.9454L21.3057 17.7514C21.3313 17.7265 21.3477 17.6915 21.3515 17.6535C21.3553 17.6154 21.3462 17.5771 21.3261 17.5464C21.1728 17.3112 21.1078 17.0165 21.1455 16.727C21.1831 16.4375 21.3203 16.1768 21.527 16.0021L21.7175 15.8413C21.8068 15.766 21.9188 15.7341 22.0288 15.7526C22.1388 15.7711 22.2378 15.8384 22.3041 15.9399C22.3704 16.0413 22.3985 16.1685 22.3822 16.2935C22.366 16.4185 22.3066 16.531 22.2173 16.6063L22.027 16.7671C21.9987 16.791 21.9799 16.8267 21.9747 16.8663C21.9696 16.906 21.9785 16.9463 21.9995 16.9786C22.1531 17.2136 22.2183 17.5084 22.1806 17.798C22.1429 18.0876 22.0055 18.3483 21.7986 18.5229C21.7912 18.5288 21.7837 18.5348 21.7761 18.5407L21.4966 18.7459C21.4289 18.7956 21.35 18.8219 21.2694 18.8218Z" fill="#F7685F"/>
<path d="M17.7744 13.858C17.6669 13.8579 17.5635 13.8108 17.4857 13.7266C17.4078 13.6424 17.3614 13.5274 17.356 13.4054L17.335 12.9276C17.3245 12.6902 17.3953 12.4575 17.5327 12.2782C17.6701 12.099 17.8633 11.9872 18.0717 11.9664L18.056 11.6068C18.0526 11.5439 18.0602 11.4809 18.0784 11.4213C18.0966 11.3618 18.125 11.307 18.162 11.2601C18.199 11.2131 18.2438 11.175 18.2938 11.1478C18.3439 11.1207 18.3982 11.1051 18.4536 11.1019C18.509 11.0988 18.5644 11.1081 18.6165 11.1295C18.6687 11.1508 18.7167 11.1837 18.7576 11.2262C18.7985 11.2687 18.8316 11.32 18.8549 11.3772C18.8783 11.4343 18.8914 11.4962 18.8936 11.5591L18.911 11.9521C18.9215 12.1895 18.8505 12.4223 18.7131 12.6015C18.5756 12.7807 18.3824 12.8924 18.1739 12.9131L18.1936 13.3574C18.1964 13.4199 18.1883 13.4824 18.1698 13.5413C18.1513 13.6003 18.1228 13.6545 18.0859 13.7009C18.0489 13.7473 18.0043 13.7849 17.9546 13.8118C17.9048 13.8386 17.8509 13.854 17.7959 13.8571C17.7887 13.8577 17.7816 13.858 17.7744 13.858Z" fill="#65D1DF"/>
<path d="M14.22 17.5623C14.2125 17.5623 14.2051 17.5623 14.1977 17.5616L13.7478 17.5345C13.6367 17.5279 13.5325 17.4713 13.4581 17.3774C13.3838 17.2835 13.3453 17.1598 13.3512 17.0337C13.3571 16.9075 13.4068 16.7892 13.4895 16.7047C13.5722 16.6202 13.6811 16.5765 13.7921 16.5832L14.2257 16.6093C14.3109 16.6048 14.3912 16.5629 14.4497 16.4925C14.5082 16.4221 14.5404 16.3287 14.5394 16.2319C14.5361 15.8804 14.6557 15.5417 14.8718 15.2902C15.088 15.0387 15.3831 14.8947 15.6925 14.89L16.0136 14.8857C16.0687 14.8849 16.1233 14.8965 16.1745 14.9197C16.2256 14.943 16.2722 14.9774 16.3116 15.0212C16.351 15.0649 16.3824 15.117 16.4041 15.1745C16.4258 15.232 16.4373 15.2938 16.438 15.3563C16.4386 15.4189 16.4284 15.481 16.408 15.539C16.3875 15.5971 16.3572 15.65 16.3187 15.6948C16.2802 15.7396 16.2343 15.7753 16.1837 15.7999C16.1331 15.8245 16.0787 15.8376 16.0236 15.8383L15.7027 15.8427C15.6156 15.844 15.5325 15.8846 15.4716 15.9554C15.4108 16.0262 15.3771 16.1215 15.3781 16.2205C15.3815 16.572 15.262 16.9107 15.0458 17.1623C14.8296 17.4138 14.5343 17.5577 14.2249 17.5623H14.22ZM20.6729 14.6371C20.5697 14.6373 20.4701 14.5943 20.3931 14.5163C20.3161 14.4384 20.2671 14.3309 20.2554 14.2144C20.2438 14.098 20.2704 13.9808 20.3301 13.8852C20.3897 13.7896 20.4783 13.7223 20.5789 13.6963L21.0582 13.5706C21.0752 13.5662 21.0913 13.558 21.1055 13.5464C21.1197 13.5349 21.1318 13.5203 21.1411 13.5035C21.1503 13.4866 21.1566 13.4679 21.1594 13.4483C21.1623 13.4288 21.1617 13.4087 21.1578 13.3894C21.1002 13.1041 21.1445 12.8045 21.2811 12.5563C21.4177 12.3081 21.6354 12.1316 21.8864 12.0655L22.4688 11.9128C22.5225 11.8988 22.5781 11.8968 22.6324 11.9072C22.6867 11.9175 22.7387 11.9399 22.7854 11.973C22.8321 12.0062 22.8726 12.0494 22.9046 12.1003C22.9366 12.1513 22.9594 12.2089 22.9718 12.2698C22.9842 12.3308 22.9859 12.3939 22.9768 12.4556C22.9677 12.5173 22.948 12.5763 22.9188 12.6294C22.8896 12.6824 22.8515 12.7285 22.8067 12.7648C22.7619 12.8011 22.7112 12.8271 22.6575 12.8411L22.0748 12.994C22.0404 13.0031 22.0107 13.0272 21.992 13.0612C21.9733 13.0952 21.9673 13.1362 21.9752 13.1753C22.0039 13.3165 22.0078 13.4629 21.9867 13.6058C21.9656 13.7488 21.92 13.8857 21.8523 14.0086C21.7846 14.1316 21.6963 14.2381 21.5924 14.3223C21.4885 14.4065 21.371 14.4665 21.2466 14.4991L20.7674 14.6247C20.7364 14.6329 20.7047 14.637 20.6729 14.6371Z" fill="#F9B534"/>
<path d="M18.4209 17.5131C18.3449 17.513 18.2703 17.4895 18.2052 17.445C18.1401 17.4005 18.0868 17.3367 18.0511 17.2604C18.0154 17.1842 17.9986 17.0984 18.0025 17.0122C18.0064 16.9259 18.0309 16.8425 18.0733 16.7709L18.4119 16.199C18.4739 16.0941 18.5701 16.0216 18.6793 15.9973C18.7884 15.973 18.9016 15.999 18.9939 16.0695C19.0862 16.14 19.15 16.2492 19.1714 16.3732C19.1928 16.4972 19.1699 16.6257 19.1079 16.7306L18.7693 17.3022C18.731 17.3671 18.6791 17.4204 18.6184 17.4571C18.5576 17.4939 18.4898 17.5131 18.4209 17.5131Z" fill="#64A053"/>
<path d="M22.1571 25.2915L19.1289 29.2332L18.351 29.4216H17.065L16.2871 29.2332L12.4443 24.2311L12.2006 24.5169C12.0882 24.6487 12.0186 24.82 12.0032 25.0027C11.9879 25.1853 12.0276 25.3685 12.1159 25.5222L15.3148 31.0881C15.6069 31.6336 15.7614 32.2598 15.7614 32.8982V34.9459H19.6546V32.8982C19.6547 32.2598 19.8092 31.6336 20.1014 31.0881L22.9887 26.0642L22.1571 25.2915Z" fill="#FCD3C4"/>
<path d="M15.7617 34.832H19.6549V40.0639H15.7617V34.832Z" fill="#4E6078"/>
<path d="M17.7104 36.4019C17.6675 36.4019 17.6264 36.4212 17.5961 36.4557C17.5658 36.4901 17.5487 36.5368 17.5487 36.5855V40.0638H17.8721V36.5855C17.8721 36.5368 17.8551 36.4901 17.8248 36.4557C17.7944 36.4212 17.7533 36.4019 17.7104 36.4019ZM15.7617 34.9459H19.6549V35.3012H15.7617V34.9459Z" fill="#47576D"/>
<path d="M19.1283 29.2331L18.3505 29.4215H17.0644L16.2865 29.2331L13.2584 25.2914L12.4268 26.0643L15.3142 31.0883C15.6063 31.6337 15.7609 32.2599 15.7609 32.8984V34.9461H19.654V32.8984C19.6541 32.2599 19.8086 31.6337 20.1008 31.0883L22.9881 26.0643L22.1566 25.2915L19.1283 29.2331Z" fill="#F7685F"/>
<path d="M17.7017 28.7185C17.5886 28.7185 17.3735 28.6181 17.1812 28.4264C17.1272 28.3727 17.0776 28.3135 17.0332 28.2495V29.5868C17.0332 29.5868 17.1538 30.2243 17.7341 30.2243C18.3144 30.2243 18.3749 29.5868 18.3749 29.5868V28.2446C18.1834 28.52 17.8744 28.7185 17.7017 28.7185Z" fill="#FCD3C4"/>
<path d="M17.7039 29.3038C18.0839 29.1472 18.316 28.9659 18.3749 28.8204V28.2446C18.1834 28.52 17.8744 28.7185 17.7017 28.7185C17.5886 28.7185 17.3735 28.6181 17.1812 28.4264C17.1272 28.3727 17.0776 28.3135 17.0332 28.2495V29.5868C17.069 29.7437 17.1402 29.8872 17.2398 30.0032C17.2399 29.6691 17.3716 29.4407 17.7039 29.3038Z" fill="#FFC7B5"/>
<path d="M18.3623 26.2845C18.1648 26.4435 18.0649 26.5083 17.8687 26.5083C17.8076 26.5077 17.7466 26.5023 17.6861 26.4923C17.4983 26.4647 17.3173 26.3943 17.1541 26.2854L16.8596 26.0598L16.7378 26.4387C16.6972 26.5437 16.6469 26.6435 16.5879 26.7365V27.7686C16.5879 28.4674 17.3103 29.0339 17.7018 29.0339C18.0934 29.0339 18.8204 28.4674 18.8204 27.7686V26.3217C18.7878 26.2849 18.7491 26.2557 18.7066 26.2359C18.664 26.2161 18.6185 26.206 18.5725 26.2062C18.497 26.2068 18.4235 26.2341 18.3623 26.2845Z" fill="#FCD3C4"/>
<path d="M19.1379 24.8418C19.1379 24.8418 18.916 25.1395 18.6529 25.08C18.3221 25.0051 18.0739 24.7905 17.4215 24.7905C16.9374 24.7905 16.2172 24.9203 16.0575 25.7629C15.8851 26.6723 16.5875 27.1946 16.5875 27.1946C16.6492 27.1475 16.7035 27.089 16.7481 27.0214C16.8504 26.877 16.9346 26.7172 16.9984 26.5466C17.1967 26.6828 17.4178 26.7707 17.6476 26.8045C18.081 26.8728 18.2633 26.7504 18.5227 26.5415C18.7175 26.3846 18.82 27.1946 18.82 27.1946C18.82 27.1946 19.1856 26.8373 19.2967 26.5603C19.7121 25.526 19.1379 24.8418 19.1379 24.8418Z" fill="#56585E"/>
<path d="M27.8423 25.2915L30.8706 29.2332L31.6484 29.4216H32.9346L33.7124 29.2332L37.5553 24.2311L37.799 24.5169C37.9113 24.6487 37.9809 24.82 37.9963 25.0027C38.0117 25.1853 37.972 25.3685 37.8837 25.5222L34.6848 31.0881C34.3927 31.6336 34.2381 32.2598 34.2381 32.8982V34.9459H30.3448V32.8982C30.3448 32.2598 30.1903 31.6336 29.8981 31.0881L27.0107 26.0642L27.8423 25.2915Z" fill="#FCD3C4"/>
<path d="M30.3457 34.8319H34.2389V40.0638H30.3457V34.8319Z" fill="#4E6078"/>
<path d="M32.2944 36.4019C32.2515 36.4019 32.2104 36.4212 32.1801 36.4557C32.1498 36.4901 32.1327 36.5368 32.1327 36.5855V40.0638H32.4561V36.5855C32.4561 36.5368 32.4391 36.4901 32.4087 36.4557C32.3784 36.4212 32.3373 36.4019 32.2944 36.4019ZM30.3457 34.9459H34.2389V35.3012H30.3457V34.9459Z" fill="#47576D"/>
<path d="M33.7122 29.2331L32.9344 29.4215H31.6482L30.8705 29.2331L27.8423 25.2914L27.0107 26.0641L29.8981 31.0881C30.1903 31.6336 30.3448 32.2598 30.3448 32.8982V34.9459H34.238V32.8982C34.238 32.2598 34.3925 31.6336 34.6847 31.0881L37.5721 26.0641L36.7405 25.2914L33.7122 29.2331Z" fill="#F9B534"/>
<path d="M32.2857 28.7185C32.1726 28.7185 31.9574 28.6181 31.7652 28.4264C31.7111 28.3727 31.6616 28.3135 31.6172 28.2495V29.5868C31.6172 29.5868 31.7377 30.2243 32.3181 30.2243C32.8984 30.2243 32.9588 29.5868 32.9588 29.5868V28.2446C32.7674 28.52 32.4583 28.7185 32.2857 28.7185Z" fill="#FCD3C4"/>
<path d="M32.2879 29.3038C32.6679 29.1472 32.9 28.9659 32.9588 28.8204V28.2446C32.7674 28.52 32.4583 28.7185 32.2857 28.7185C32.1726 28.7185 31.9574 28.6181 31.7652 28.4264C31.7111 28.3727 31.6616 28.3135 31.6172 28.2495V29.5868C31.653 29.7437 31.7242 29.8872 31.8238 30.0032C31.8239 29.6691 31.9557 29.4407 32.2879 29.3038Z" fill="#FFC7B5"/>
<path d="M32.9453 26.2845C32.7479 26.4435 32.6479 26.5083 32.4517 26.5083C32.3906 26.5077 32.3296 26.5023 32.2691 26.4923C32.0813 26.4647 31.9003 26.3943 31.7371 26.2854L31.4426 26.0598L31.3208 26.4387C31.2802 26.5437 31.2299 26.6435 31.1709 26.7365V27.7686C31.1709 28.4674 31.8933 29.0339 32.2848 29.0339C32.6764 29.0339 33.4034 28.4674 33.4034 27.7686V26.3217C33.3708 26.2849 33.3321 26.2557 33.2896 26.2359C33.247 26.2161 33.2015 26.206 33.1555 26.2062C33.08 26.2068 33.0065 26.2341 32.9453 26.2845Z" fill="#FCD3C4"/>
<path d="M33.7219 24.8418C33.7219 24.8418 33.5 25.1395 33.2369 25.08C32.9061 25.0051 32.6579 24.7905 32.0054 24.7905C31.5214 24.7905 30.8012 24.9203 30.6415 25.7629C30.4691 26.6723 31.1715 27.1946 31.1715 27.1946C31.2332 27.1475 31.2875 27.089 31.3321 27.0214C31.4344 26.877 31.5186 26.7172 31.5824 26.5466C31.7807 26.6828 32.0018 26.7707 32.2316 26.8045C32.665 26.8728 32.8473 26.7504 33.1066 26.5415C33.3015 26.3846 33.404 27.1946 33.404 27.1946C33.404 27.1946 33.7696 26.8373 33.8807 26.5603C34.296 25.526 33.7219 24.8418 33.7219 24.8418Z" fill="#56585E"/>
<path d="M22.541 33.2795H27.5894V40.0638H22.541V33.2795Z" fill="#4E6078"/>
<path d="M28.1686 28.4251L32.3167 21.2076C32.4312 21.0083 32.4826 20.7708 32.4626 20.5339C32.4426 20.2971 32.3523 20.075 32.2066 19.904L31.8906 19.5333L26.9078 26.0196L25.8992 26.2637H24.2312L23.2226 26.0196L18.2395 19.5332L17.9233 19.904C17.7776 20.0749 17.6873 20.297 17.6673 20.5339C17.6473 20.7707 17.6988 21.0083 17.8132 21.2076L21.9613 28.4251C22.3401 29.1323 22.5405 29.9443 22.5405 30.7722V33.4274H27.5893V30.7722C27.5893 29.9443 27.7897 29.1323 28.1686 28.4251Z" fill="#FCD3C4"/>
<path d="M25.0681 35.3154C25.0124 35.3154 24.9591 35.3405 24.9198 35.3851C24.8805 35.4298 24.8584 35.4904 24.8584 35.5535V40.0639H25.2777V35.5535C25.2777 35.4904 25.2556 35.4298 25.2163 35.3851C25.177 35.3405 25.1237 35.3154 25.0681 35.3154ZM22.541 33.4274H27.5894V33.888H22.541V33.4274Z" fill="#47576D"/>
<path d="M26.9081 26.0195L25.8994 26.2636H24.2314L23.2228 26.0195L19.2961 20.9083L18.2178 21.9101L21.9619 28.4248C22.3407 29.1321 22.5411 29.944 22.5411 30.7719V33.4271H27.5895V30.7721C27.5895 29.9442 27.7899 29.1323 28.1687 28.425L31.913 21.9101L30.8346 20.9081L26.9081 26.0195Z" fill="#65D1DF"/>
<path d="M25.0573 25.3521C24.9106 25.3521 24.6317 25.2219 24.3824 24.9732C24.3123 24.9036 24.2481 24.8268 24.1904 24.7438V26.4781C24.1904 26.4781 24.3468 27.3048 25.0993 27.3048C25.8517 27.3048 25.9301 26.4781 25.9301 26.4781V24.7377C25.682 25.0947 25.2814 25.3521 25.0573 25.3521Z" fill="#FCD3C4"/>
<path d="M25.061 26.111C25.5538 25.908 25.8547 25.6729 25.9312 25.4841V24.7375C25.6829 25.0948 25.2822 25.352 25.0583 25.352C24.9115 25.352 24.6327 25.2219 24.3834 24.9732C24.3133 24.9036 24.249 24.8268 24.1914 24.7437V26.478C24.2379 26.6813 24.3302 26.8674 24.4593 27.0179C24.4594 26.5848 24.6301 26.2886 25.061 26.111Z" fill="#FFC7B5"/>
<path d="M25.9142 22.1959C25.6582 22.4022 25.5285 22.4862 25.2742 22.4862C25.1949 22.4854 25.1158 22.4784 25.0373 22.4654C24.7938 22.4297 24.5592 22.3384 24.3475 22.1971L23.9656 21.9047L23.8077 22.396C23.755 22.5321 23.6899 22.6615 23.6133 22.7821V24.1204C23.6133 25.0266 24.55 25.7612 25.0578 25.7612C25.5655 25.7612 26.5082 25.0266 26.5082 24.1204V22.2441C26.466 22.1964 26.4158 22.1585 26.3606 22.1328C26.3055 22.1071 26.2464 22.094 26.1868 22.0942C26.0888 22.0951 25.9935 22.1306 25.9142 22.1959Z" fill="#FCD3C4"/>
<path d="M26.9205 20.3252C26.9205 20.3252 26.6327 20.7116 26.2915 20.6344C25.8625 20.5373 25.5406 20.2593 24.6946 20.2593C24.067 20.2593 23.1331 20.4275 22.926 21.5202C22.7023 22.6991 23.6132 23.3767 23.6132 23.3767C23.6932 23.3156 23.7636 23.2397 23.8214 23.1521C23.9541 22.9649 24.0633 22.7577 24.146 22.5364C24.4031 22.7131 24.6898 22.827 24.9878 22.8709C25.5499 22.9594 25.7862 22.8007 26.1225 22.5298C26.3752 22.3263 26.5082 23.3767 26.5082 23.3767C26.5082 23.3767 26.9822 22.9131 27.1263 22.5542C27.6651 21.2124 26.9205 20.3252 26.9205 20.3252Z" fill="#56585E"/>
</svg>
