<svg width="50" height="51" viewBox="0 0 50 51" fill="none" xmlns="http://www.w3.org/2000/svg">
<circle cx="25" cy="25.0638" r="25" fill="#E8F5E9"/>
<mask id="mask0_400_4918" style="mask-type:luminance" maskUnits="userSpaceOnUse" x="13" y="11" width="24" height="28">
<path d="M13 11.0638H37V38.0638H13V11.0638Z" fill="white"/>
</mask>
<g mask="url(#mask0_400_4918)">
<path d="M35.3295 20.7346L34.7527 19.3776C34.7125 19.283 34.6405 19.2102 34.5526 19.1753C34.4646 19.1404 34.368 19.1461 34.2839 19.1914C34.1998 19.2366 34.1351 19.3176 34.104 19.4165C34.073 19.5154 34.0782 19.6242 34.1184 19.7188L34.6951 21.0759C34.715 21.1227 34.7429 21.1647 34.7773 21.1994C34.8116 21.2342 34.8517 21.2609 34.8952 21.2782C34.9388 21.2955 34.9849 21.303 35.031 21.3002C35.0771 21.2975 35.1223 21.2845 35.1639 21.2621C35.2056 21.2397 35.2429 21.2083 35.2738 21.1696C35.3046 21.131 35.3284 21.0859 35.3438 21.0369C35.3592 20.9879 35.3658 20.936 35.3634 20.8842C35.3609 20.8323 35.3494 20.7815 35.3295 20.7346Z" fill="#54C9EB"/>
<path d="M26.57 20.6841L25.4137 19.9317C25.3331 19.881 25.238 19.8681 25.149 19.8956C25.0599 19.9232 24.9841 19.9891 24.9379 20.079C24.8916 20.1689 24.8787 20.2757 24.9019 20.3763C24.925 20.4769 24.9825 20.5631 25.0617 20.6165L26.218 21.3688C26.258 21.3948 26.3021 21.4117 26.3479 21.4186C26.3936 21.4254 26.4402 21.422 26.4848 21.4086C26.5294 21.3952 26.5712 21.372 26.6078 21.3404C26.6445 21.3088 26.6752 21.2694 26.6983 21.2244C26.7215 21.1795 26.7365 21.1299 26.7426 21.0784C26.7486 21.0269 26.7456 20.9745 26.7337 20.9244C26.7218 20.8742 26.7012 20.8271 26.6731 20.7859C26.645 20.7447 26.61 20.7101 26.57 20.6841Z" fill="#FFE26F"/>
<path d="M15.4911 19.1026C15.4521 19.0747 15.4087 19.0558 15.3632 19.0468C15.3177 19.0378 15.2711 19.0389 15.226 19.0502C15.181 19.0615 15.1383 19.0827 15.1005 19.1125C15.0627 19.1423 15.0305 19.1802 15.0057 19.2241L14.2883 20.493C14.2636 20.5368 14.2467 20.5857 14.2387 20.6369C14.2307 20.6881 14.2318 20.7405 14.2418 20.7912C14.2518 20.8419 14.2706 20.8899 14.2971 20.9324C14.3236 20.9749 14.3573 21.0112 14.3963 21.039C14.4352 21.067 14.4787 21.086 14.5242 21.095C14.5697 21.104 14.6163 21.1028 14.6613 21.0915C14.7064 21.0802 14.7491 21.0591 14.7869 21.0292C14.8247 20.9994 14.8569 20.9614 14.8816 20.9176L15.599 19.6486C15.6238 19.6048 15.6407 19.5559 15.6487 19.5048C15.6566 19.4536 15.6556 19.4012 15.6456 19.3505C15.6355 19.2998 15.6167 19.2518 15.5902 19.2093C15.5637 19.1667 15.53 19.1305 15.4911 19.1026Z" fill="#54C9EB"/>
<path d="M35.2859 26.9302V33.3212H31.3887L31.8574 26.9302C31.8574 26.0475 32.3839 25.3029 33.1025 25.0729C33.1029 25.0724 33.1034 25.0729 33.1034 25.0729C33.252 25.0249 33.4095 24.9996 33.5717 24.9996C34.5186 24.9996 35.2859 25.8639 35.2859 26.9302Z" fill="#997AB8"/>
<path d="M35.2851 26.9303V33.3213H33.9702C34.0198 33.3213 34.0688 33.3104 34.1146 33.2891C34.1604 33.2678 34.202 33.2365 34.2371 33.1971C34.2722 33.1576 34.2999 33.1108 34.3189 33.0593C34.3379 33.0078 34.3476 32.9526 34.3476 32.8968V26.9303C34.3476 26.0476 33.8212 25.303 33.1025 25.073C33.2511 25.025 33.4087 24.9998 33.5709 24.9998C34.5177 24.9998 35.2851 25.864 35.2851 26.9303Z" fill="#6957A1"/>
<path d="M34.9333 23.8732C34.9333 24.7186 34.3221 25.4067 33.5711 25.4067C33.4066 25.4067 33.2487 25.3735 33.1024 25.3129C32.5816 25.0977 32.209 24.5335 32.209 23.8732C32.209 23.213 32.5816 22.6487 33.1024 22.433C33.2525 22.3708 33.4112 22.3391 33.5711 22.3392C34.3221 22.3392 34.9333 23.0274 34.9333 23.8732Z" fill="#FFD6A9"/>
<path d="M34.9335 23.8732C34.9335 24.7186 34.3222 25.4067 33.5713 25.4067C33.4068 25.4067 33.2488 25.3735 33.1025 25.3129C33.6234 25.0977 33.996 24.5335 33.996 23.8732C33.996 23.213 33.6234 22.6487 33.1025 22.433C33.2526 22.3708 33.4113 22.3391 33.5713 22.3392C34.3222 22.3392 34.9335 23.0274 34.9335 23.8732Z" fill="#F7BE97"/>
<path d="M31.8571 26.9302V33.3212H27.96L28.4287 26.9302C28.4287 26.0475 28.9552 25.3029 29.6737 25.0729C29.6742 25.0724 29.6746 25.0729 29.6746 25.0729C29.8232 25.0249 29.9808 24.9996 30.143 24.9996C31.0898 24.9996 31.8571 25.8639 31.8571 26.9302Z" fill="#A6DFF5"/>
<path d="M31.8563 26.9303V33.3213H30.5415C30.7501 33.3213 30.9188 33.1315 30.9188 32.8968V26.9303C30.9188 26.0476 30.3925 25.303 29.6738 25.073C29.8224 25.025 29.98 24.9998 30.1422 24.9998C31.089 24.9998 31.8563 25.864 31.8563 26.9303Z" fill="#54C9EB"/>
<path d="M31.5046 23.8732C31.5046 24.7186 30.8934 25.4067 30.1425 25.4067C29.9779 25.4067 29.82 25.3735 29.6737 25.3129C29.1529 25.0977 28.7803 24.5335 28.7803 23.8732C28.7803 23.213 29.1529 22.6487 29.6737 22.433C29.8238 22.3708 29.9825 22.3391 30.1425 22.3392C30.8934 22.3392 31.5046 23.0274 31.5046 23.8732Z" fill="#FFD6A9"/>
<path d="M31.5048 23.8732C31.5048 24.7186 30.8935 25.4067 30.1426 25.4067C29.978 25.4067 29.8201 25.3735 29.6738 25.3129C30.1946 25.0977 30.5673 24.5335 30.5673 23.8732C30.5673 23.213 30.1946 22.6487 29.6738 22.433C29.8239 22.3708 29.9826 22.3391 30.1426 22.3392C30.8935 22.3392 31.5048 23.0274 31.5048 23.8732Z" fill="#F7BE97"/>
<path d="M28.4284 26.9302V33.3212H24.5312L25 26.9302C25 26.0475 25.5264 25.3029 26.245 25.0729C26.2455 25.0724 26.2459 25.0729 26.2459 25.0729C26.3945 25.0249 26.552 24.9996 26.7142 24.9996C27.6611 24.9996 28.4284 25.8639 28.4284 26.9302Z" fill="#C8D9E2"/>
<path d="M28.4286 26.9302V33.3212H27.1138C27.3223 33.3212 27.4911 33.1314 27.4911 32.8967V26.9302C27.4911 26.0475 26.9647 25.3029 26.2461 25.0729C26.3947 25.0249 26.5522 24.9996 26.7144 24.9996C27.6612 24.9996 28.4286 25.8639 28.4286 26.9302Z" fill="#A1ADB4"/>
<path d="M28.0769 23.8732C28.0769 24.7186 27.4657 25.4067 26.7147 25.4067C26.5502 25.4067 26.3922 25.3735 26.2459 25.3129C25.7252 25.0977 25.3525 24.5335 25.3525 23.8732C25.3525 23.213 25.7252 22.6487 26.2459 22.433C26.396 22.3708 26.5547 22.3391 26.7147 22.3392C27.4657 22.3392 28.0769 23.0274 28.0769 23.8732Z" fill="#FFD6A9"/>
<path d="M28.0761 23.8732C28.0761 24.7186 27.4649 25.4067 26.7139 25.4067C26.5494 25.4067 26.3914 25.3735 26.2451 25.3129C26.7659 25.0977 27.1386 24.5335 27.1386 23.8732C27.1386 23.213 26.7659 22.6487 26.2451 22.433C26.3952 22.3708 26.5539 22.3391 26.7139 22.3392C27.4649 22.3392 28.0761 23.0274 28.0761 23.8732Z" fill="#F7BE97"/>
<path d="M24.9998 26.9303V33.3213H21.1025L21.5713 26.9303C21.5713 26.0476 22.0977 25.303 22.8163 25.073C22.8168 25.0725 22.8172 25.073 22.8172 25.073C22.9658 25.025 23.1234 24.9998 23.2856 24.9998C24.2324 24.9998 24.9998 25.864 24.9998 26.9303Z" fill="#FFE26F"/>
<path d="M24.9999 26.9302V33.3212H23.6851C23.7346 33.3212 23.7837 33.3102 23.8295 33.2889C23.8753 33.2676 23.9169 33.2363 23.952 33.1969C23.987 33.1575 24.0148 33.1107 24.0338 33.0592C24.0527 33.0077 24.0625 32.9525 24.0624 32.8967V26.9302C24.0624 26.0475 23.536 25.3029 22.8174 25.0729C22.966 25.0249 23.1235 24.9996 23.2857 24.9996C24.2326 24.9996 24.9999 25.8639 24.9999 26.9302Z" fill="#FFBA4C"/>
<path d="M24.6482 23.8732C24.6482 24.7186 24.037 25.4067 23.286 25.4067C23.1215 25.4067 22.9635 25.3735 22.8172 25.3129C22.2965 25.0977 21.9238 24.5335 21.9238 23.8732C21.9238 23.213 22.2965 22.6487 22.8172 22.433C22.9673 22.3708 23.126 22.3391 23.286 22.3392C24.037 22.3392 24.6482 23.0274 24.6482 23.8732Z" fill="#FFD6A9"/>
<path d="M24.6484 23.8732C24.6484 24.7186 24.0371 25.4067 23.2861 25.4067C23.1216 25.4067 22.9637 25.3735 22.8174 25.3129C23.3382 25.0977 23.7109 24.5335 23.7109 23.8732C23.7109 23.213 23.3382 22.6487 22.8174 22.433C22.9675 22.3708 23.1262 22.3391 23.2861 22.3392C24.0371 22.3392 24.6484 23.0274 24.6484 23.8732Z" fill="#F7BE97"/>
<path d="M21.5711 26.9302V33.3212H17.6738L18.1426 26.9302C18.1426 26.0475 18.669 25.3029 19.3876 25.0729C19.3881 25.0724 19.3885 25.0729 19.3885 25.0729C19.5371 25.0249 19.6947 24.9996 19.8568 24.9996C20.8037 24.9996 21.5711 25.8639 21.5711 26.9302Z" fill="#F77A49"/>
<path d="M21.5712 26.9302V33.3212H20.2563C20.3059 33.3212 20.355 33.3103 20.4008 33.2889C20.4466 33.2676 20.4882 33.2364 20.5232 33.1969C20.5583 33.1575 20.5861 33.1107 20.605 33.0592C20.624 33.0077 20.6337 32.9525 20.6337 32.8967V26.9302C20.6337 26.0475 20.1073 25.3029 19.3887 25.0729C19.5373 25.0249 19.6948 24.9996 19.857 24.9996C20.8039 24.9996 21.5712 25.8639 21.5712 26.9302Z" fill="#DE4F42"/>
<path d="M21.2185 23.8732C21.2185 24.7186 20.6072 25.4067 19.8563 25.4067C19.6918 25.4067 19.5338 25.3735 19.3875 25.3129C18.8667 25.0977 18.4941 24.5335 18.4941 23.8732C18.4941 23.213 18.8667 22.6487 19.3875 22.433C19.5376 22.3708 19.6963 22.3391 19.8563 22.3392C20.6072 22.3392 21.2185 23.0274 21.2185 23.8732Z" fill="#FFD6A9"/>
<path d="M21.2196 23.8732C21.2196 24.7186 20.6084 25.4067 19.8574 25.4067C19.6929 25.4067 19.535 25.3735 19.3887 25.3129C19.9095 25.0977 20.2821 24.5335 20.2821 23.8732C20.2821 23.213 19.9095 22.6487 19.3887 22.433C19.5388 22.3708 19.6975 22.3391 19.8574 22.3392C20.6084 22.3392 21.2196 23.0274 21.2196 23.8732Z" fill="#F7BE97"/>
<path d="M18.1433 26.9304V33.3214H14.7148V26.9304C14.7148 26.0477 15.2412 25.303 15.9598 25.0731C15.9603 25.0726 15.9608 25.0731 15.9608 25.0731C16.1094 25.0251 16.2669 24.9998 16.4291 24.9998C17.3759 24.9998 18.1433 25.8641 18.1433 26.9304Z" fill="#5BC196"/>
<path d="M18.1434 26.9304V33.3214H16.8286C17.0372 33.3214 17.2059 33.1316 17.2059 32.8969V26.9304C17.2059 26.0477 16.6796 25.303 15.9609 25.0731C16.1095 25.0251 16.267 24.9998 16.4292 24.9998C17.3761 24.9998 18.1434 25.8641 18.1434 26.9304Z" fill="#25A077"/>
<path d="M17.7908 23.8735C17.7908 24.7187 17.1795 25.407 16.4285 25.407C16.2641 25.407 16.1061 25.3738 15.9598 25.3131C15.4391 25.098 15.0664 24.5337 15.0664 23.8735C15.0664 23.2132 15.4391 22.6489 15.9598 22.4332C16.1099 22.3711 16.2686 22.3393 16.4285 22.3394C17.1795 22.3394 17.7908 23.0276 17.7908 23.8735Z" fill="#FFD6A9"/>
<path d="M17.7909 23.8735C17.7909 24.7187 17.1797 25.407 16.4287 25.407C16.2642 25.407 16.1063 25.3738 15.96 25.3131C16.4808 25.098 16.8534 24.5337 16.8534 23.8735C16.8534 23.2132 16.4808 22.6489 15.96 22.4332C16.1101 22.3711 16.2688 22.3393 16.4287 22.3394C17.1797 22.3394 17.7909 23.0276 17.7909 23.8735Z" fill="#F7BE97"/>
<path d="M36.9998 33.3214V38.0638H33.1025L33.5713 33.3214C33.5713 32.4387 34.0977 31.6941 34.8163 31.4641C34.8168 31.4636 34.8172 31.4641 34.8172 31.4641C34.9658 31.4161 35.1234 31.3908 35.2856 31.3908C36.2324 31.3908 36.9998 32.2551 36.9998 33.3214Z" fill="#F77A49"/>
<path d="M36.9999 33.3214V38.0638H35.6851C35.8937 38.0638 36.0624 37.874 36.0624 37.6393V33.3214C36.0624 32.4387 35.536 31.6941 34.8174 31.4641C34.966 31.4161 35.1235 31.3908 35.2857 31.3908C36.2326 31.3908 36.9999 32.2551 36.9999 33.3214Z" fill="#DE4F42"/>
<path d="M36.6482 30.2645C36.6482 31.1098 36.037 31.798 35.286 31.798C35.1215 31.798 34.9635 31.7648 34.8172 31.7042C34.2965 31.489 33.9238 30.9247 33.9238 30.2645C33.9238 29.6042 34.2965 29.04 34.8172 28.8243C34.9673 28.7621 35.126 28.7303 35.286 28.7304C36.037 28.7304 36.6482 29.4187 36.6482 30.2645Z" fill="#FFD6A9"/>
<path d="M36.6474 30.2645C36.6474 31.1098 36.0361 31.798 35.2852 31.798C35.1207 31.798 34.9627 31.7648 34.8164 31.7042C35.3372 31.489 35.7099 30.9247 35.7099 30.2645C35.7099 29.6042 35.3372 29.04 34.8164 28.8243C34.9665 28.7621 35.1252 28.7303 35.2852 28.7304C36.0361 28.7304 36.6474 29.4187 36.6474 30.2645Z" fill="#F7BE97"/>
<path d="M33.571 33.3214V38.0638H29.6738L30.1426 33.3214C30.1426 32.4387 30.669 31.6941 31.3876 31.4641C31.3881 31.4636 31.3885 31.4641 31.3885 31.4641C31.5371 31.4161 31.6947 31.3908 31.8568 31.3908C32.8037 31.3908 33.571 32.2551 33.571 33.3214Z" fill="#5BC196"/>
<path d="M33.5712 33.3214V38.0638H32.2563C32.4649 38.0638 32.6337 37.874 32.6337 37.6393V33.3214C32.6337 32.4387 32.1073 31.6941 31.3887 31.4641C31.5373 31.4161 31.6948 31.3908 31.857 31.3908C32.8039 31.3908 33.5712 32.2551 33.5712 33.3214Z" fill="#25A077"/>
<path d="M33.2194 30.2645C33.2194 31.1098 32.6082 31.798 31.8573 31.798C31.6927 31.798 31.5348 31.7648 31.3885 31.7042C30.8677 31.489 30.4951 30.9247 30.4951 30.2645C30.4951 29.6042 30.8677 29.04 31.3885 28.8243C31.5386 28.7621 31.6973 28.7303 31.8573 28.7304C32.6082 28.7304 33.2194 29.4187 33.2194 30.2645Z" fill="#FFD6A9"/>
<path d="M33.2196 30.2645C33.2196 31.1098 32.6084 31.798 31.8574 31.798C31.6929 31.798 31.535 31.7648 31.3887 31.7042C31.9095 31.489 32.2821 30.9247 32.2821 30.2645C32.2821 29.6042 31.9095 29.04 31.3887 28.8243C31.5388 28.7621 31.6975 28.7303 31.8574 28.7304C32.6084 28.7304 33.2196 29.4187 33.2196 30.2645Z" fill="#F7BE97"/>
<path d="M30.1433 33.3214V38.0638H26.2461L26.7148 33.3214C26.7148 32.4387 27.2413 31.6941 27.9598 31.4641C27.9604 31.4636 27.9608 31.4641 27.9608 31.4641C28.1094 31.4161 28.2669 31.3908 28.4291 31.3908C29.3759 31.3908 30.1433 32.2551 30.1433 33.3214Z" fill="#FFE26F"/>
<path d="M30.1425 33.3214V38.0638H28.8276C29.0362 38.0638 29.205 37.874 29.205 37.6393V33.3214C29.205 32.4387 28.6786 31.6941 27.96 31.4641C28.1086 31.4161 28.2661 31.3908 28.4283 31.3908C29.3751 31.3908 30.1425 32.2551 30.1425 33.3214Z" fill="#FFBA4C"/>
<path d="M29.7908 30.2645C29.7908 31.1098 29.1795 31.798 28.4286 31.798C28.2641 31.798 28.1061 31.7648 27.9598 31.7042C27.4391 31.489 27.0664 30.9247 27.0664 30.2645C27.0664 29.6042 27.4391 29.04 27.9598 28.8243C28.1099 28.7621 28.2686 28.7303 28.4286 28.7304C29.1795 28.7304 29.7908 29.4187 29.7908 30.2645Z" fill="#FFD6A9"/>
<path d="M29.7909 30.2645C29.7909 31.1098 29.1796 31.798 28.4287 31.798C28.2642 31.798 28.1063 31.7648 27.96 31.7042C28.4807 31.489 28.8534 30.9247 28.8534 30.2645C28.8534 29.6042 28.4807 29.04 27.96 28.8243C28.1101 28.7621 28.2688 28.7303 28.4287 28.7304C29.1796 28.7304 29.7909 29.4187 29.7909 30.2645Z" fill="#F7BE97"/>
<path d="M26.7146 33.3214V38.0638H22.8174L23.2861 33.3214C23.2861 32.4387 23.8126 31.6941 24.5312 31.4641C24.5316 31.4636 24.5321 31.4641 24.5321 31.4641C24.6807 31.4161 24.8382 31.3908 25.0004 31.3908C25.9473 31.3908 26.7146 32.2551 26.7146 33.3214Z" fill="#997AB8"/>
<path d="M26.7148 33.3214V38.0638H25.3999C25.6085 38.0638 25.7773 37.874 25.7773 37.6393V33.3214C25.7773 32.4387 25.2509 31.6941 24.5322 31.4641C24.6808 31.4161 24.8384 31.3908 25.0006 31.3908C25.9474 31.3908 26.7148 32.2551 26.7148 33.3214Z" fill="#6957A1"/>
<path d="M26.3621 30.2645C26.3621 31.1098 25.7508 31.798 24.9998 31.798C24.8354 31.798 24.6774 31.7648 24.5311 31.7042C24.0104 31.489 23.6377 30.9247 23.6377 30.2645C23.6377 29.6042 24.0104 29.04 24.5311 28.8243C24.6812 28.7621 24.8399 28.7303 24.9998 28.7304C25.7508 28.7304 26.3621 29.4187 26.3621 30.2645Z" fill="#FFD6A9"/>
<path d="M26.3622 30.2645C26.3622 31.1098 25.751 31.798 25 31.798C24.8355 31.798 24.6775 31.7648 24.5312 31.7042C25.0521 31.489 25.4247 30.9247 25.4247 30.2645C25.4247 29.6042 25.0521 29.04 24.5312 28.8243C24.6813 28.7621 24.84 28.7303 25 28.7304C25.751 28.7304 26.3622 29.4187 26.3622 30.2645Z" fill="#F7BE97"/>
<path d="M23.2859 33.3214V38.0638H19.3887L19.8574 33.3214C19.8574 32.4387 20.3839 31.6941 21.1024 31.4641C21.1029 31.4636 21.1034 31.4641 21.1034 31.4641C21.252 31.4161 21.4095 31.3908 21.5717 31.3908C22.5185 31.3908 23.2859 32.2551 23.2859 33.3214Z" fill="#A6DFF5"/>
<path d="M23.286 33.3214V38.0638H21.9712C22.1798 38.0638 22.3485 37.874 22.3485 37.6393V33.3214C22.3485 32.4387 21.8222 31.6941 21.1035 31.4641C21.2521 31.4161 21.4097 31.3908 21.5718 31.3908C22.5187 31.3908 23.286 32.2551 23.286 33.3214Z" fill="#54C9EB"/>
<path d="M22.9343 30.2645C22.9343 31.1098 22.3231 31.798 21.5721 31.798C21.4076 31.798 21.2497 31.7648 21.1034 31.7042C20.5826 31.489 20.21 30.9247 20.21 30.2645C20.21 29.6042 20.5826 29.04 21.1034 28.8243C21.2535 28.7621 21.4122 28.7303 21.5721 28.7304C22.3231 28.7304 22.9343 29.4187 22.9343 30.2645Z" fill="#FFD6A9"/>
<path d="M22.9335 30.2645C22.9335 31.1098 22.3222 31.798 21.5713 31.798C21.4068 31.798 21.2488 31.7648 21.1025 31.7042C21.6233 31.489 21.996 30.9247 21.996 30.2645C21.996 29.6042 21.6233 29.04 21.1025 28.8243C21.2526 28.7621 21.4113 28.7303 21.5713 28.7304C22.3222 28.7304 22.9335 29.4187 22.9335 30.2645Z" fill="#F7BE97"/>
<path d="M19.8582 33.3214V38.0638H15.9609L16.4297 33.3214C16.4297 32.4387 16.9561 31.6941 17.6747 31.4641C17.6752 31.4636 17.6756 31.4641 17.6756 31.4641C17.8242 31.4161 17.9818 31.3908 18.144 31.3908C19.0908 31.3908 19.8582 32.2551 19.8582 33.3214Z" fill="#C8D9E2"/>
<path d="M19.8574 33.3214V38.0638H18.5425C18.7511 38.0638 18.9199 37.874 18.9199 37.6393V33.3214C18.9199 32.4387 18.3934 31.6941 17.6748 31.4641C17.8234 31.4161 17.9809 31.3908 18.1431 31.3908C19.09 31.3908 19.8574 32.2551 19.8574 33.3214Z" fill="#A1ADB4"/>
<path d="M19.5056 30.2645C19.5056 31.1098 18.8944 31.798 18.1434 31.798C17.9789 31.798 17.8209 31.7648 17.6746 31.7042C17.1539 31.489 16.7812 30.9247 16.7812 30.2645C16.7812 29.6042 17.1539 29.04 17.6746 28.8243C17.8247 28.7621 17.9834 28.7303 18.1434 28.7304C18.8944 28.7304 19.5056 29.4187 19.5056 30.2645Z" fill="#FFD6A9"/>
<path d="M19.5048 30.2645C19.5048 31.1098 18.8936 31.798 18.1426 31.798C17.9781 31.798 17.8201 31.7648 17.6738 31.7042C18.1947 31.489 18.5673 30.9247 18.5673 30.2645C18.5673 29.6042 18.1947 29.04 17.6738 28.8243C17.8239 28.7621 17.9826 28.7303 18.1426 28.7304C18.8936 28.7304 19.5048 29.4187 19.5048 30.2645Z" fill="#F7BE97"/>
<path d="M14.7143 31.3907C13.7675 31.3907 13 32.2553 13 33.3217V37.6394C13 37.752 13.0397 37.8599 13.1105 37.9395C13.1812 38.0191 13.2772 38.0638 13.3772 38.0638H16.4285V33.3217C16.4285 32.2553 15.661 31.3907 14.7143 31.3907Z" fill="#F77A49"/>
<path d="M16.4286 33.3214V38.0638H15.1138C15.3223 38.0638 15.4911 37.874 15.4911 37.6393V33.3214C15.4911 32.4387 14.9647 31.6941 14.2461 31.4641C14.3947 31.4161 14.5522 31.3908 14.7144 31.3908C15.6612 31.3908 16.4286 32.2551 16.4286 33.3214Z" fill="#DE4F42"/>
<path d="M14.7147 28.7303C13.9636 28.7303 13.3525 29.4185 13.3525 30.2643C13.3525 31.11 13.9636 31.7981 14.7147 31.7981C15.4658 31.7981 16.0769 31.11 16.0769 30.2643C16.0769 29.4185 15.4658 28.7303 14.7147 28.7303Z" fill="#FFD6A9"/>
<path d="M16.077 30.2645C16.077 31.1098 15.4658 31.798 14.7148 31.798C14.5503 31.798 14.3924 31.7648 14.2461 31.7042C14.7669 31.489 15.1395 30.9247 15.1395 30.2645C15.1395 29.6042 14.7669 29.04 14.2461 28.8243C14.3962 28.7621 14.5549 28.7303 14.7148 28.7304C15.4658 28.7304 16.077 29.4187 16.077 30.2645Z" fill="#F7BE97"/>
<path d="M26.957 13.2554V17.5896C26.9571 17.6592 26.9409 17.7276 26.9099 17.7879C26.879 17.8482 26.8344 17.8982 26.7808 17.933C26.7274 17.9672 26.6669 17.9852 26.6055 17.9852C26.5445 17.9852 26.4831 17.9673 26.4283 17.9314L26.0008 17.6503L25 16.9925L23.5717 17.9314C23.5183 17.9666 23.4576 17.9853 23.3957 17.9856C23.3337 17.9859 23.2729 17.9677 23.2192 17.933C23.1656 17.8982 23.121 17.8482 23.0901 17.7879C23.0591 17.7276 23.0429 17.6592 23.043 17.5896V13.2449L26.0008 13.2528L26.957 13.2554Z" fill="#F77A49"/>
<path d="M17.4292 12.8816V17.441C17.4292 17.6097 17.334 17.7601 17.192 17.815C17.1227 17.8418 17.0477 17.8437 16.9774 17.8202C16.9072 17.7967 16.8452 17.7492 16.8001 17.6841L16.48 17.2215L15.7281 16.1345L14.8652 16.8154C14.8125 16.857 14.7506 16.8815 14.6864 16.8862C14.6221 16.8909 14.558 16.8757 14.5009 16.8423C14.4438 16.8089 14.396 16.7586 14.3626 16.6967C14.3292 16.6349 14.3115 16.5639 14.3115 16.4915V12.3045L16.48 12.7059L17.4292 12.8816Z" fill="#997AB8"/>
<path d="M22.046 13.3241L20.5905 18.6551C20.5684 18.736 20.5238 18.8068 20.4633 18.8571C20.4029 18.9074 20.3296 18.9346 20.2544 18.9347H20.253C20.1775 18.9345 20.1041 18.9069 20.0437 18.8561C19.9832 18.8053 19.9389 18.7339 19.9174 18.6525L18.4619 13.1685L20.5582 13.2597L22.046 13.3241Z" fill="#FFE26F"/>
<path d="M26.9562 13.2555V17.5896C26.9563 17.6592 26.9401 17.7277 26.9091 17.788C26.8782 17.8482 26.8336 17.8983 26.78 17.933C26.7266 17.9672 26.6662 17.9852 26.6047 17.9852C26.5437 17.9852 26.4823 17.9674 26.4275 17.9314L26 17.6503V13.2528L26.9562 13.2555Z" fill="#DE4F42"/>
<path d="M22.0464 13.3241L20.591 18.6551C20.5689 18.736 20.5243 18.8068 20.4638 18.8571C20.4033 18.9074 20.3301 18.9346 20.2549 18.9347L20.5586 13.2597L22.0464 13.3241Z" fill="#FFBA4C"/>
<path d="M17.4287 12.8814V17.4408C17.4287 17.6096 17.3336 17.76 17.1915 17.8148C17.1222 17.8417 17.0472 17.8435 16.9769 17.8201C16.9067 17.7966 16.8447 17.749 16.7996 17.684L16.4795 17.2214V12.7058L17.4287 12.8814Z" fill="#6957A1"/>
<path d="M35.6889 12.3044V16.4914C35.6889 16.5638 35.6713 16.6348 35.6379 16.6966C35.6045 16.7585 35.5566 16.8088 35.4996 16.8422C35.4425 16.8757 35.3783 16.8909 35.3141 16.8861C35.2499 16.8814 35.1881 16.8569 35.1354 16.8153L34.8222 16.5684L34.2724 16.1344L33.2004 17.6841C33.1553 17.7491 33.0934 17.7967 33.0232 17.8201C32.9529 17.8436 32.8779 17.8419 32.8087 17.8151C32.7394 17.7883 32.6793 17.7378 32.6367 17.6707C32.5941 17.6036 32.5713 17.5233 32.5713 17.4409V12.8814L34.8222 12.4648L35.6889 12.3044Z" fill="#5BC196"/>
<path d="M31.5372 13.1685L30.0817 18.6525C30.0602 18.7339 30.0159 18.8053 29.9554 18.8561C29.895 18.9069 29.8216 18.9345 29.7461 18.9347H29.7447C29.6695 18.9346 29.5962 18.9074 29.5358 18.8571C29.4753 18.8068 29.4307 18.736 29.4086 18.6551L27.9531 13.3241L30.0198 13.2344L31.5372 13.1685Z" fill="#D0EDF5"/>
<path d="M35.688 12.3044V16.4914C35.688 16.5638 35.6703 16.6348 35.6369 16.6966C35.6035 16.7585 35.5557 16.8088 35.4986 16.8422C35.4416 16.8757 35.3774 16.8909 35.3132 16.8861C35.2489 16.8814 35.1871 16.8569 35.1344 16.8153L34.8213 16.5684V12.4648L35.688 12.3044Z" fill="#25A077"/>
<path d="M31.5376 13.1685L30.0821 18.6525C30.0606 18.7339 30.0163 18.8053 29.9558 18.8561C29.8954 18.9069 29.822 18.9345 29.7465 18.9347H29.7451L30.0203 13.2344L31.5376 13.1685Z" fill="#A6DFF5"/>
<path d="M36.6925 11.067C36.6467 11.0605 36.6002 11.0641 36.5557 11.0778C36.5111 11.0915 36.4694 11.115 36.4329 11.1468C36.3964 11.1786 36.3659 11.2182 36.343 11.2633C36.3201 11.3085 36.3054 11.3582 36.2996 11.4098C36.2991 11.414 36.2027 11.8441 34.4406 12.2279C32.5161 12.6471 29.3398 12.8596 25 12.8596C20.6601 12.8596 17.4839 12.6471 15.5593 12.2279C13.7972 11.8441 13.7008 11.414 13.7003 11.4098C13.6759 11.193 13.4999 11.0398 13.3074 11.0669C13.2149 11.0801 13.1308 11.1341 13.0737 11.217C13.0166 11.3 12.9911 11.405 13.0028 11.5091C13.1061 12.4285 14.4623 13.6508 25 13.6508C35.5376 13.6508 36.8938 12.4285 36.9971 11.5091C37.0029 11.4576 36.9997 11.4053 36.9875 11.3552C36.9753 11.305 36.9545 11.2581 36.9262 11.2171C36.8979 11.176 36.8627 11.1416 36.8226 11.1159C36.7825 11.0901 36.7383 11.0735 36.6925 11.067Z" fill="#98654C"/>
<path d="M18.2764 20.7522C18.2764 20.857 18.3134 20.9575 18.3793 21.0317C18.4452 21.1058 18.5346 21.1475 18.6277 21.1475C18.7209 21.1475 18.8103 21.1058 18.8762 21.0317C18.9421 20.9575 18.9791 20.857 18.9791 20.7522C18.9791 20.6473 18.9421 20.5468 18.8762 20.4726C18.8103 20.3985 18.7209 20.3569 18.6277 20.3569C18.5346 20.3569 18.4452 20.3985 18.3793 20.4726C18.3134 20.5468 18.2764 20.6473 18.2764 20.7522Z" fill="#F77A49"/>
<path d="M30.6064 21.0722C30.6064 21.1241 30.6155 21.1756 30.6332 21.2235C30.6508 21.2715 30.6767 21.3151 30.7093 21.3518C30.742 21.3885 30.7807 21.4176 30.8233 21.4375C30.866 21.4573 30.9117 21.4675 30.9578 21.4675C31.004 21.4675 31.0497 21.4573 31.0923 21.4375C31.1349 21.4176 31.1737 21.3885 31.2063 21.3518C31.2389 21.3151 31.2648 21.2715 31.2825 21.2235C31.3001 21.1756 31.3092 21.1241 31.3092 21.0722C31.3092 21.0203 31.3001 20.9689 31.2825 20.921C31.2648 20.873 31.2389 20.8294 31.2063 20.7927C31.1737 20.756 31.1349 20.7269 31.0923 20.707C31.0497 20.6871 31.004 20.6769 30.9578 20.6769C30.9117 20.6769 30.866 20.6871 30.8233 20.707C30.7807 20.7269 30.742 20.756 30.7093 20.7927C30.6767 20.8294 30.6508 20.873 30.6332 20.921C30.6155 20.9689 30.6064 21.0203 30.6064 21.0722Z" fill="#F77A49"/>
</g>
</svg>
