<svg width="50" height="51" viewBox="0 0 50 51" fill="none" xmlns="http://www.w3.org/2000/svg">
<circle cx="25" cy="25.0638" r="25" fill="#FFEBEE"/>
<path d="M35.146 38.0639H14.8521C14.3204 38.0639 13.8896 37.6328 13.8896 37.1008V21.5723H36.1086V37.1008C36.1086 37.6328 35.6775 38.0639 35.146 38.0639Z" fill="#FFC73B"/>
<path d="M13.8896 21.5723H36.1086V24.8036H13.8896V21.5723Z" fill="#EFB025"/>
<path d="M38 18.2035V22.2067C38 22.6343 37.6533 22.9807 37.226 22.9807H12.7734C12.3461 22.9807 12 22.6343 12 22.2067V18.2035C12 17.7759 12.3461 17.4296 12.7734 17.4296H37.226C37.6533 17.4296 38 17.7759 38 18.2035Z" fill="#FFC73B"/>
<path d="M24.1166 19.2701C23.9479 19.4666 23.7825 19.6659 23.6204 19.8679C23.02 20.6158 22.4681 21.4014 21.9681 22.2199C21.8149 22.4707 21.6666 22.7243 21.5231 22.9808H16.25C16.5582 22.2811 16.8958 21.5947 17.2619 20.9236C17.9273 19.7027 18.6853 18.5346 19.5292 17.4296C19.7314 17.1647 19.9385 16.9035 20.1503 16.6462C20.2772 16.4909 20.4063 16.3379 20.5373 16.1854L21.9808 17.4296C22.0554 17.4936 22.13 17.5582 22.2044 17.6224C22.7724 18.1119 23.3406 18.6011 23.9085 19.0912C23.9781 19.1504 24.0471 19.2105 24.1166 19.2701ZM31.9843 22.9808H26.7108C26.5675 22.7242 26.4192 22.4706 26.2658 22.2199C25.7656 21.4015 25.2137 20.6159 24.6134 19.8679C24.451 19.666 24.2854 19.4667 24.1166 19.2701C24.1861 19.2105 24.2552 19.1508 24.3248 19.0912C24.8934 18.6011 25.4615 18.1113 26.0294 17.6224C26.1039 17.5582 26.1785 17.4936 26.2531 17.4296C26.7344 17.0148 27.2158 16.6003 27.6967 16.1854C27.8275 16.3373 27.9565 16.4908 28.0836 16.6458C28.2956 16.9031 28.5027 17.1644 28.7047 17.4296C29.5486 18.5347 30.3067 19.7028 30.9724 20.9236C31.3385 21.5948 31.6761 22.2811 31.9843 22.9808Z" fill="#EFB025"/>
<path d="M25 19.2704C24.8311 19.4667 24.6657 19.666 24.5037 19.8681C23.9032 20.616 23.3513 21.4017 22.8513 22.2203C21.2624 24.8191 20.2158 27.7129 19.7743 30.7272C19.108 29.8429 18.4931 28.8862 17.9398 27.8631C16.9666 28.4983 16.0154 29.2248 15.0996 30.0422C15.5678 26.8463 16.599 23.759 18.1453 20.9236C18.9706 19.4096 19.9376 17.9774 21.0335 16.6463C21.1607 16.4912 21.2897 16.3376 21.4205 16.1855C21.9763 16.6645 22.5317 17.1435 23.0878 17.6225C23.6557 18.1119 24.2238 18.6012 24.7919 19.0914C24.8613 19.1505 24.9304 19.2107 25 19.2704ZM34.9007 30.0422C33.9849 29.2248 33.0337 28.4983 32.0605 27.8631C31.5073 28.8862 30.8924 29.8429 30.2261 30.7272C29.7847 27.7128 28.738 24.819 27.149 22.2202C26.6489 21.4018 26.097 20.6161 25.4967 19.8681C25.3343 19.6662 25.1688 19.4669 25 19.2704C25.0694 19.2107 25.1385 19.1509 25.2081 19.0914C25.7766 18.6012 26.3447 18.1114 26.9128 17.6225C27.4686 17.1429 28.0247 16.6645 28.5798 16.1855C28.7107 16.3374 28.8397 16.4909 28.9669 16.6459C30.0629 17.9771 31.0302 19.4094 31.8556 20.9236C33.4015 23.7591 34.4326 26.8464 34.9007 30.0422L34.9007 30.0422Z" fill="#FF4440"/>
<path d="M22.9307 19.2704H27.0708V22.9807H22.9307V19.2704Z" fill="#FF4440"/>
<path d="M31.8547 20.9237L27.1481 22.2203C26.648 21.4018 26.096 20.6161 25.4957 19.8681L25.2071 19.0914L24.999 18.5312L26.9119 17.6225L28.966 16.6459C30.062 17.9771 31.0293 19.4095 31.8547 20.9237Z" fill="#EA2F2F"/>
<path d="M25.0002 18.5312L24.7921 19.0914L24.5039 19.8681C23.9034 20.6161 23.3515 21.4018 22.8515 22.2204L18.1455 20.9237C18.9708 19.4097 19.9378 17.9774 21.0337 16.6464L23.0879 17.6225L25.0002 18.5312Z" fill="#EA2F2F"/>
<path d="M32.5108 12.2438L24.9994 15.8134L26.4423 19.6966L34.4598 17.4883C35.5083 17.1995 36.0844 16.0734 35.7053 15.0534L35.0436 13.2729C34.6647 12.2528 33.4934 11.777 32.5108 12.2438ZM17.4879 12.2438L24.9994 15.8134L23.5565 19.6966L15.5392 17.4883C14.4907 17.1995 13.9146 16.0734 14.2937 15.0534L14.9552 13.2729C15.3343 12.2528 16.5054 11.777 17.4879 12.2438Z" fill="#FF4440"/>
<path d="M26.7937 17.374C26.7242 17.3741 26.6557 17.3566 26.5946 17.3232C26.5336 17.2898 26.482 17.2415 26.4446 17.1828C26.4153 17.137 26.3953 17.0858 26.3858 17.0323C26.3762 16.9787 26.3773 16.9238 26.389 16.8707C26.4006 16.8176 26.4226 16.7673 26.4537 16.7227C26.4848 16.6781 26.5244 16.64 26.5702 16.6107C26.6271 16.5744 27.98 15.7129 29.5332 15.0843C31.7723 14.1779 33.2676 14.2266 33.9769 15.2288C34.0084 15.2732 34.0308 15.3234 34.0429 15.3764C34.0549 15.4295 34.0564 15.4844 34.0473 15.5381C34.0381 15.5917 34.0185 15.643 33.9895 15.6891C33.9605 15.7351 33.9227 15.775 33.8783 15.8064C33.834 15.8379 33.7838 15.8603 33.7308 15.8723C33.6778 15.8844 33.623 15.8859 33.5694 15.8767C33.5158 15.8676 33.4645 15.8479 33.4185 15.8189C33.3725 15.7899 33.3327 15.7522 33.3013 15.7078C32.3396 14.3493 28.3412 16.4617 27.0163 17.3089C26.9498 17.3514 26.8726 17.374 26.7937 17.374ZM23.1657 17.374C23.0868 17.374 23.0095 17.3514 22.9431 17.3089C21.6182 16.4617 17.6198 14.3493 16.6581 15.7077C16.5947 15.7974 16.4982 15.8582 16.3899 15.8767C16.2816 15.8952 16.1705 15.8699 16.0809 15.8064C15.9913 15.7428 15.9306 15.6463 15.9121 15.5379C15.8937 15.4296 15.919 15.3184 15.9825 15.2287C16.6919 14.2266 18.1869 14.1779 20.4263 15.0842C21.9795 15.7127 23.3323 16.5744 23.3892 16.6107C23.4816 16.6699 23.5468 16.7634 23.5704 16.8707C23.594 16.9779 23.5741 17.0902 23.515 17.1827C23.4775 17.2414 23.4258 17.2897 23.3648 17.3231C23.3037 17.3565 23.2352 17.374 23.1657 17.374Z" fill="#EA2F2F"/>
<path d="M26.1774 14.4786H23.8217C23.177 14.4786 22.6543 15.0017 22.6543 15.647V19.0717C22.6543 19.717 23.177 20.24 23.8217 20.24H26.1774C26.8222 20.24 27.3449 19.717 27.3449 19.0717V15.647C27.3449 15.0017 26.8222 14.4786 26.1774 14.4786Z" fill="#EA2F2F"/>
<path d="M22.9297 22.9807H27.0698V38.0638H22.9297V22.9807Z" fill="#FF4440"/>
<path d="M22.9297 22.9807H27.0698V24.8035H22.9297V22.9807Z" fill="#EA2F2F"/>
</svg>
