<svg width="50" height="51" viewBox="0 0 50 51" fill="none" xmlns="http://www.w3.org/2000/svg">
<circle cx="25" cy="25.0638" r="25" fill="#E8F5E9"/>
<g clip-path="url(#clip0_257_19248)">
<path d="M31.792 30.8342H33.667V38.34H31.792V30.8342Z" fill="#D35F05"/>
<path d="M32.7295 30.8342H33.667V38.34H32.7295V30.8342Z" fill="#A14603"/>
<path d="M36.7295 34.587H38.6045V38.34H36.7295V34.587Z" fill="#D35F05"/>
<path d="M36.7295 34.587H38.6045V38.34H36.7295V34.587Z" fill="#A14603"/>
<path d="M26.8545 34.587H28.7295V38.34H26.8545V34.587Z" fill="#D35F05"/>
<path d="M28.4795 29.8967H36.9795V31.7717H28.4795V29.8967ZM35.4798 33.647H39.8546V35.522H35.4798V33.647ZM25.6045 33.647H29.9792V35.522H25.6045V33.647Z" fill="#FE9100"/>
<path d="M15.0088 25.0485H20.634V38.34H15.0088V25.0485Z" fill="#D35F05"/>
<path d="M17.8213 25.0485H20.6339V38.34H17.8213V25.0485Z" fill="#A14603"/>
<path d="M24.4837 18.3356C24.5137 18.0776 24.5287 17.8178 24.5287 17.5581C24.5287 13.8594 21.5196 10.8503 17.821 10.8503C14.1224 10.8503 11.1133 13.8594 11.1133 17.5581C11.1133 17.8178 11.1284 18.0776 11.1583 18.3356C9.71792 19.4228 8.9058 21.1507 9.00874 22.987C9.1628 25.7366 11.3514 27.938 14.0997 28.1076C14.2138 28.1146 14.3293 28.1183 14.443 28.1183C15.1815 28.1183 15.898 27.9725 16.5727 27.6851C16.9673 27.5166 17.392 27.4299 17.8211 27.4305C18.2501 27.4299 18.6748 27.5166 19.0694 27.6851C19.744 27.9725 20.4605 28.1182 21.1989 28.1183C21.3127 28.1183 21.4282 28.1146 21.5423 28.1076C24.2906 27.9381 26.4792 25.7367 26.6334 22.987C26.7362 21.1507 25.9241 19.4228 24.4837 18.3356Z" fill="#56C125"/>
<path d="M9 37.4025H40.9999V39.2775H9V37.4025Z" fill="#ABE233"/>
<path d="M32.7295 18.4384C34.5589 18.4384 36.042 16.9553 36.042 15.1259C36.042 13.2964 34.5589 11.8134 32.7295 11.8134C30.9 11.8134 29.417 13.2964 29.417 15.1259C29.417 16.9553 30.9 18.4384 32.7295 18.4384Z" fill="#FFDE46"/>
<path d="M35.4795 33.647H39.8542V35.522H35.4795V33.647Z" fill="#D35F05"/>
<path d="M36.042 15.1259C36.042 13.2993 34.556 11.8134 32.7295 11.8134V18.4384C34.5561 18.4384 36.042 16.9524 36.042 15.1259Z" fill="#FEBF01"/>
<path d="M32.7295 29.8967H36.9795V31.7717H32.7295V29.8967Z" fill="#D35F05"/>
<path d="M32.7295 37.4025H41.0002V39.2775H32.7295V37.4025Z" fill="#56C125"/>
<path d="M24.484 18.3355C24.514 18.0775 24.529 17.8176 24.529 17.5579C24.529 13.8593 21.5199 10.8502 17.8213 10.8502V27.4303C18.2503 27.4298 18.675 27.5164 19.0696 27.685C19.7442 27.9724 20.4607 28.1181 21.1992 28.1182C21.3129 28.1182 21.4284 28.1145 21.5425 28.1075C24.2908 27.938 26.4794 25.7366 26.6336 22.9869C26.7364 21.1506 25.9244 19.4227 24.484 18.3355Z" fill="#019A5A"/>
</g>
<defs>
<clipPath id="clip0_257_19248">
<rect width="32" height="32" fill="white" transform="translate(9 9.06384)"/>
</clipPath>
</defs>
</svg>
